HIERARCHY
ROOT Hips
{
	OFFSET 0.000000 0.000000 0.000000
	CHANNELS 6 Xposition Yposition Zposition Zrotation Yrotation Xrotation 
	JOINT LHipJoint
	{
		OFFSET 0.000000 0.000000 0.000000
		CHANNELS 3 Zrotation Yrotation Xrotation
		JOINT LeftUpLeg
		{
			OFFSET 1.363060 -1.794630 0.839290
			CHANNELS 3 Zrotation Yrotation Xrotation
			JOINT LeftLeg
			{
				OFFSET 2.448110 -6.726130 0.000000
				CHANNELS 3 Zrotation Yrotation Xrotation
				JOINT LeftFoot
				{
					OFFSET 2.562200 -7.039590 0.000000
					CHANNELS 3 Zrotation Yrotation Xrotation
					JOINT LeftToeBase
					{
						OFFSET 0.157640 -0.433110 2.322550
						CHANNELS 3 Zrotation Yrotation Xrotation
						End Site
						{
							OFFSET 0.000000 0.000000 0.000000
						}
					}
				}
			}
		}
	}
	JOINT RHipJoint
	{
		OFFSET 0.000000 0.000000 0.000000
		CHANNELS 3 Zrotation Yrotation Xrotation
		JOINT RightUpLeg
		{
			OFFSET -1.305520 -1.794630 0.839290
			CHANNELS 3 Zrotation Yrotation Xrotation
			JOINT RightLeg
			{
				OFFSET -2.542530 -6.985550 0.000000
				CHANNELS 3 Zrotation Yrotation Xrotation
				JOINT RightFoot
				{
					OFFSET -2.568260 -7.056230 0.000000
					CHANNELS 3 Zrotation Yrotation Xrotation
					JOINT RightToeBase
					{
						OFFSET -0.164730 -0.452590 2.363150
						CHANNELS 3 Zrotation Yrotation Xrotation
						End Site
						{
							OFFSET 0.000000 0.000000 0.000000
						}
					}
				}
			}
		}
	}
	JOINT LowerBack
	{
		OFFSET 0.000000 0.000000 0.000000
		CHANNELS 3 Zrotation Yrotation Xrotation
		JOINT Spine
		{
			OFFSET 0.028270 2.035590 -0.193380
			CHANNELS 3 Zrotation Yrotation Xrotation
			JOINT Spine1
			{
				OFFSET 0.056720 2.048850 -0.042750
				CHANNELS 3 Zrotation Yrotation Xrotation
				JOINT Neck
				{
					OFFSET 0.000000 0.000000 0.000000
					CHANNELS 3 Zrotation Yrotation Xrotation
					JOINT Neck1
					{
						OFFSET -0.054170 1.746240 0.172020
						CHANNELS 3 Zrotation Yrotation Xrotation
						JOINT Head
						{
							OFFSET 0.104070 1.761360 -0.123970
							CHANNELS 3 Zrotation Yrotation Xrotation
							End Site
							{
								OFFSET 0.000000 0.000000 0.000000
							}
						}
					}
				}
				JOINT LeftShoulder
				{
					OFFSET 0.000000 0.000000 0.000000
					CHANNELS 3 Zrotation Yrotation Xrotation
					JOINT LeftArm
					{
						OFFSET 3.362410 1.200890 -0.311210
						CHANNELS 3 Zrotation Yrotation Xrotation
						JOINT LeftForeArm
						{
							OFFSET 4.983000 -0.000000 -0.000000
							CHANNELS 3 Zrotation Yrotation Xrotation
							JOINT LeftHand
							{
								OFFSET 3.483560 -0.000000 -0.000000
								CHANNELS 3 Zrotation Yrotation Xrotation
								JOINT LeftFingerBase
								{
									OFFSET 0.000000 0.000000 0.000000
									CHANNELS 3 Zrotation Yrotation Xrotation
									JOINT LeftHandIndex1
									{
										OFFSET 0.715260 -0.000000 -0.000000
										CHANNELS 3 Zrotation Yrotation Xrotation
										End Site
										{
											OFFSET 0.000000 0.000000 0.000000
										}
									}
								}
								JOINT LThumb
								{
									OFFSET 0.000000 0.000000 0.000000
									CHANNELS 3 Zrotation Yrotation Xrotation
									End Site
									{
										OFFSET 0.000000 0.000000 0.000000
									}
								}
							}
						}
					}
				}
				JOINT RightShoulder
				{
					OFFSET 0.000000 0.000000 0.000000
					CHANNELS 3 Zrotation Yrotation Xrotation
					JOINT RightArm
					{
						OFFSET -3.136600 1.374050 -0.404650
						CHANNELS 3 Zrotation Yrotation Xrotation
						JOINT RightForeArm
						{
							OFFSET -5.241900 -0.000000 -0.000000
							CHANNELS 3 Zrotation Yrotation Xrotation
							JOINT RightHand
							{
								OFFSET -3.444170 -0.000000 -0.000000
								CHANNELS 3 Zrotation Yrotation Xrotation
								JOINT RightFingerBase
								{
									OFFSET 0.000000 0.000000 0.000000
									CHANNELS 3 Zrotation Yrotation Xrotation
									JOINT RightHandIndex1
									{
										OFFSET -0.622530 -0.000000 -0.000000
										CHANNELS 3 Zrotation Yrotation Xrotation
										End Site
										{
											OFFSET 0.000000 0.000000 0.000000
										}
									}
								}
								JOINT RThumb
								{
									OFFSET 0.000000 0.000000 0.000000
									CHANNELS 3 Zrotation Yrotation Xrotation
									End Site
									{
										OFFSET 0.000000 0.000000 0.000000
									}
								}
							}
						}
					}
				}
			}
		}
	}
}
MOTION
Frames: 10
Frame Time: 0.008333
-5.494405 17.833539 -4.775017 103.864238 -86.221714 -108.521031 0.694443 -3.819493 -1.850150 -26.494041 1.605547 2.109970 -0.064612 8.937058 20.565780 -0.841558 6.760669 -7.542926 0.357700 3.842500 10.634000 -4.903263 2.421904 -4.451131 11.741754 -11.373767 -13.887330 -12.258819 -19.746523 68.431341 0.140968 -4.053674 -4.298604 -0.274900 -3.372500 9.317700 -5.002540 -0.623648 2.434798 -0.103823 -1.118809 -1.551534 2.650949 -0.611746 5.163438 -5.028190 1.870378 -16.441365 5.702506 3.137031 16.886174 1.699500 1.000900 16.189800 -8.666974 -2.400944 -1.108943 -74.521785 -6.460952 22.891453 4.380755 -16.747901 -1.316167 -0.612894 0.423865 5.283082 20.633751 -11.403467 -4.532800 -7.125000 0.000000 0.000000 -4.110700 17.424600 2.698100 10.875742 3.869165 -1.251544 69.269586 -7.167034 6.808817 -7.571601 19.240218 -2.754262 1.334590 0.642406 0.506377 -8.800854 -29.708673 5.138800 7.125000 0.000000 0.000000 23.951300 -58.986700 -8.491500 
-5.648008 17.830149 -4.773746 100.967633 -86.408028 -105.604828 0.739272 -3.763052 -1.859809 -26.448047 1.526648 2.627759 -0.054682 8.948681 20.622355 -0.812427 6.648420 -7.833116 0.307600 3.565500 9.857300 -4.914176 2.429569 -4.433819 12.317265 -11.251001 -14.842841 -12.001736 -19.701318 67.648252 0.144842 -4.227655 -5.342529 -0.247400 -3.200400 8.837100 -4.974366 -0.782983 2.110273 -0.052488 -1.316260 -1.469982 2.779919 -0.740357 5.619325 -4.988779 1.902875 -16.637262 5.697676 3.200146 16.863634 1.689500 1.039700 16.174400 -8.666907 -2.378721 -1.078414 -74.291764 -7.329836 23.433415 4.522710 -16.940143 -1.369923 -0.626714 0.525996 4.779111 22.322921 -13.423607 -5.805700 -7.125000 0.000000 0.000000 -3.023800 14.985400 2.142100 10.912269 3.836951 -1.240303 69.197728 -7.223015 5.520390 -7.266858 18.808680 -2.670513 1.328199 0.634310 1.372899 -8.659737 -29.737460 5.064300 7.125000 0.000000 0.000000 24.146500 -58.990800 -8.568300 
-5.785508 17.817543 -4.767496 96.941159 -86.547554 -101.575829 0.786836 -3.693868 -1.841008 -26.470507 1.489732 3.068296 -0.031224 9.003027 20.794285 -0.781127 6.531053 -8.157821 0.289500 3.459900 9.561900 -4.900357 2.441883 -4.389653 12.763506 -11.137912 -15.822421 -11.715404 -19.621441 66.762068 0.147996 -4.475372 -6.524422 -0.208500 -2.940200 8.112400 -4.844087 -0.890704 2.257889 -0.047621 -1.482114 -1.517167 2.685188 -0.797076 5.414692 -4.796924 1.940862 -16.602724 5.641682 3.171930 16.855928 1.610600 1.047200 16.190300 -8.680637 -2.416761 -1.076009 -73.877971 -7.784319 24.438535 4.807746 -17.308564 -1.424437 -0.648015 0.448770 3.666416 21.773709 -11.577224 -4.892500 -7.125000 0.000000 0.000000 -3.304700 17.088200 2.191400 10.909324 3.872187 -1.265210 69.320129 -7.815473 4.649888 -7.072251 18.542340 -2.617464 1.321542 0.625779 1.638594 -8.654731 -29.683249 5.048500 7.125000 0.000000 0.000000 24.116700 -58.937100 -8.525500 
-5.914004 17.793391 -4.757221 91.385748 -86.506637 -95.927685 0.833385 -3.627597 -1.831437 -26.615259 1.669873 3.285010 0.000737 9.098417 21.053442 -0.631619 5.901370 -8.405858 0.294500 3.489700 9.645100 -4.874649 2.476766 -4.367078 12.928215 -11.183122 -16.850436 -11.404774 -19.492319 65.776066 0.131630 -4.520527 -7.452721 -0.193700 -2.834000 7.816900 -4.913996 -1.063314 2.183630 -0.033915 -1.711161 -1.500581 2.732978 -0.913512 5.553890 -4.798959 1.940026 -16.740282 5.649415 3.196581 16.735594 1.620000 1.067100 16.121500 -8.696746 -2.414806 -1.065196 -73.563508 -8.453574 25.349722 5.131757 -17.734461 -1.504813 -0.716776 0.412574 2.615335 22.884521 -10.115343 -4.542900 -7.125000 0.000000 0.000000 -2.421200 18.584000 1.524700 10.920869 3.883074 -1.258165 69.249915 -7.994150 4.098788 -6.876911 18.283715 -2.571729 1.325604 0.626404 1.600583 -9.068366 -29.833853 5.286800 7.125000 0.000000 0.000000 23.803900 -59.161900 -8.536500 
-6.048645 17.765848 -4.744297 85.840148 -86.482548 -90.324356 0.867411 -3.553814 -1.807588 -26.718958 1.746975 3.562748 0.036963 9.198037 21.328233 -0.573531 5.634074 -8.248135 0.289600 3.460900 9.564800 -4.860657 2.514454 -4.344746 13.107065 -11.355697 -17.715367 -11.047415 -19.324292 64.626217 0.105534 -4.452152 -8.166841 -0.258200 -3.269100 9.028800 -4.865284 -1.262247 2.179242 -0.010719 -1.988947 -1.528254 2.745664 -1.037296 5.511864 -4.869353 1.982383 -16.728640 5.660204 3.286926 16.646778 1.655300 1.097000 16.044100 -8.707223 -2.420046 -1.067996 -73.319872 -8.808932 26.099409 5.499854 -18.218622 -1.599338 -0.731261 0.387409 1.747680 23.046700 -9.532870 -4.322700 -7.125000 0.000000 0.000000 -2.276500 19.215200 1.401500 10.925786 3.903095 -1.260595 69.176442 -8.320410 3.057814 -6.692157 18.003282 -2.520198 1.317595 0.622239 1.952621 -8.991786 -29.698305 5.220900 7.125000 0.000000 0.000000 23.791700 -59.024800 -8.452700 
-6.186357 17.755573 -4.738471 82.152505 -86.646159 -86.565859 0.889261 -3.484860 -1.779349 -26.603149 1.569297 3.913865 0.067922 9.269283 21.559964 -0.552809 5.560707 -8.525795 0.268100 3.330800 9.201200 -4.883015 2.521598 -4.303520 13.704745 -11.183598 -18.514832 -10.611692 -19.158324 63.239084 0.098731 -4.674531 -8.987050 -0.315200 -3.609100 9.979500 -4.621304 -1.356113 2.291856 0.009803 -2.145565 -1.605930 2.654581 -1.078306 5.195219 -4.756515 2.041042 -16.489420 5.634712 3.295498 16.570051 1.614600 1.111900 15.943700 -8.712693 -2.457851 -1.070241 -72.984131 -9.025108 26.887816 5.783385 -18.570689 -1.659951 -0.643172 0.370685 0.872544 21.014071 -10.276151 -4.184700 -7.125000 0.000000 0.000000 -3.809500 18.593100 2.401300 10.913654 3.937492 -1.284897 69.337604 -8.887835 1.778860 -6.564651 17.784791 -2.493883 1.306876 0.621827 2.266632 -8.695463 -29.826010 5.081500 7.125000 0.000000 0.000000 24.219300 -59.079800 -8.648300 
-6.323964 17.753030 -4.738788 79.494913 -86.741690 -83.790816 0.914063 -3.436965 -1.778835 -26.514983 1.544838 4.230635 0.085303 9.303143 21.680210 -0.469967 5.238277 -8.973212 0.212600 2.968800 8.191900 -4.921130 2.518010 -4.283065 14.318783 -10.767760 -19.234673 -10.119570 -18.970084 61.665768 0.098071 -5.080943 -10.027011 -0.283500 -3.424600 9.463200 -4.496765 -1.385123 2.122839 0.015272 -2.182679 -1.578589 2.602880 -1.098352 5.351193 -4.697760 1.967478 -16.506096 5.671409 3.172840 16.473835 1.616000 1.082600 15.859800 -8.729651 -2.456769 -1.052716 -72.603013 -9.678729 27.987386 6.057453 -18.905613 -1.721167 -0.655096 0.350502 -0.058337 21.059618 -9.831263 -4.018900 -7.125000 0.000000 0.000000 -3.760500 19.073400 2.330200 10.902425 3.943224 -1.283370 69.542057 -9.023362 0.142152 -6.301090 17.364135 -2.428583 1.299081 0.608268 2.786989 -8.561261 -29.927997 5.020400 7.125000 0.000000 0.000000 24.451600 -59.138500 -8.772400 
-6.465278 17.743285 -4.734763 76.416805 -86.563927 -80.667634 0.924545 -3.389800 -1.742139 -26.683725 1.796920 4.645453 0.080460 9.274476 21.603865 -0.328718 4.654399 -9.288590 0.146200 2.463800 6.789300 -4.942936 2.512114 -4.244334 14.508900 -10.506143 -19.824898 -9.611652 -18.705613 59.987902 0.090924 -5.392901 -10.880289 -0.227600 -3.070900 8.476300 -4.701428 -1.530941 2.274999 0.059085 -2.404473 -1.681929 2.830622 -1.187541 4.974636 -4.764676 2.031866 -16.287516 5.618335 3.257925 16.519890 1.589300 1.093700 15.864500 -8.715034 -2.485912 -1.077813 -72.435123 -9.609022 29.032869 6.550725 -19.572841 -1.854491 -0.672519 0.313646 -1.111232 21.284837 -9.120591 -3.776800 -7.125000 0.000000 0.000000 -3.573600 19.840900 2.152700 10.918568 3.978916 -1.312719 69.439133 -9.769052 -0.783933 -6.154278 17.117061 -2.386980 1.293300 0.610124 3.176102 -8.578284 -29.917590 5.023900 7.125000 0.000000 0.000000 24.445200 -59.140500 -8.771100 
-6.607863 17.733327 -4.725759 73.891193 -86.202084 -78.074971 0.949606 -3.359004 -1.744454 -27.072382 2.050418 5.193367 0.047614 9.180652 21.312480 -0.227328 4.226018 -9.410585 0.105900 2.098400 5.777700 -4.952170 2.512947 -4.241766 14.391646 -10.394541 -20.381422 -9.092289 -18.390845 58.224755 0.083089 -5.579771 -11.342152 -0.220200 -3.020800 8.336600 -4.957857 -1.682157 2.056396 0.046252 -2.579882 -1.631420 2.857731 -1.293432 5.286120 -4.756554 2.052745 -16.471952 5.529469 3.310652 16.501633 1.538000 1.110800 15.871600 -8.724499 -2.480879 -1.065931 -72.115431 -10.153424 29.712104 7.009938 -20.152657 -1.986158 -0.681179 0.294444 -2.141039 21.427479 -8.808623 -3.677600 -7.125000 0.000000 0.000000 -3.461600 20.171200 2.059400 10.930364 3.956922 -1.309529 69.424517 -9.887862 -1.568630 -6.057868 16.957405 -2.367625 1.288312 0.613633 3.393864 -8.547878 -30.091014 5.030900 7.125000 0.000000 0.000000 24.631800 -59.295400 -8.935700 
-6.757122 17.729937 -4.722369 73.117080 -85.825810 -77.261686 0.978416 -3.340884 -1.753155 -27.502519 2.195784 5.846972 0.001266 9.044622 20.905610 -0.254117 4.355046 -9.459975 0.094000 1.977000 5.442000 -4.966405 2.497592 -4.233163 14.286278 -10.137261 -20.771145 -8.538546 -18.041764 56.311312 0.063273 -5.665452 -11.808068 -0.266500 -3.321200 9.174400 -5.286681 -1.744424 1.909982 0.016864 -2.636947 -1.597731 2.887357 -1.338565 5.485896 -4.683653 2.066212 -16.617480 5.455257 3.323515 16.479166 1.474300 1.123500 15.880500 -8.730906 -2.488034 -1.050625 -71.856238 -10.704112 30.121355 7.306838 -20.510723 -2.076784 -0.683573 0.304237 -2.878747 21.672498 -9.046989 -3.826200 -7.125000 0.000000 0.000000 -3.294000 19.877500 1.981000 10.933046 3.945982 -1.316509 69.489140 -10.138486 -2.071422 -6.013634 16.885786 -2.365446 1.283445 0.623665 3.204715 -8.613340 -30.369725 5.105200 7.125000 0.000000 0.000000 24.801000 -59.563500 -9.162700 
